<mxfile host="app.diagrams.net" modified="2021-05-27T10:58:39.269Z" agent="5.0 (Windows NT 10.0; Win64; x64) AppleWebKit/537.36 (KHTML, like Gecko) Chrome/90.0.4430.212 Safari/537.36" etag="iEwLiA-EvRs2Q9bq2AdM" version="14.7.1" type="github">
  <diagram id="bhX9S7ZF0tDyhHaO2m-x" name="Page-1">
    <mxGraphModel dx="1422" dy="762" grid="1" gridSize="10" guides="1" tooltips="1" connect="1" arrows="1" fold="1" page="1" pageScale="1" pageWidth="827" pageHeight="1169" math="0" shadow="0">
      <root>
        <mxCell id="0" />
        <mxCell id="1" parent="0" />
        <mxCell id="g8EfFPZP4n4fyyGRmkDg-1" value="" style="shape=image;verticalLabelPosition=bottom;labelBackgroundColor=#ffffff;verticalAlign=top;aspect=fixed;imageAspect=0;image=data:image/png,iVBORw0KGgoAAAANSUhEUgAAAHMAAABOCAYAAAATpymVAAAL5klEQVR4Xu2cZawUSxOGC7jYxV2CB78kuLsTLLgEDwT34MHdCe7uGoJfXIN7gODu7g5fnk5mM4cLTLNn9szuflN/IDDT011vd9Vb0hvu+/fv38WVoNBAOBfMoMBRLcIFM3iwdMEMIixdMF0wg0kDQbQW12e6YAaRBoJoKe7JdMEMIg0E0VIC7mR+/fpVPn36JFGjRg0iGOxZSkCBOWzYMOnXr598+/ZN8ubNK+vXr5e4cePao4kgGCVgwNy0aZPUrFlT3r17p9QeMWJEKVOmjGzYsCEIYLBnCQEDZo8ePWTEiBEhVh0nThx59uyZPZoIglECBszJkydL165d5f379x61Z8yYUS5cuKAFw8GDB2X8+PFCkahdu3ZSqFAhrfcC6aGAAfPDhw9SsGBBuXTpkke/27Ztk3z58lnqe9++fVKuXDmPiYY8YbaLFStm+W4gPRAwYKJUWOyWLVvk9evXUqRIEUmePLmWritWrCgbN24M8Wzp0qVl69atWu8HykMBBaa3SoUocYrNwqnctWuX1pAfP36UU6dOSaRIkSRr1qwSPnx4rffC+qH/CzAJYerUqeMxs3///bcsWrRIqlataqnvBw8eSIECBeTJkycqJALMHTt2SJQoUSzfDesH/ArMo0ePqtgxZsyY0qRJE4kXL55t+lizZo0MHz5cEaAuXbpI7dq1tcYGcMKfL1++qOfxtz179pQ+ffpovR+WD/kNmCgMBcNWiSFJBpw9e1bix48flvr4z7cyZMgQgnTxQI0aNWTlypWOzutnH/cbMNOmTStXr171zBH/RLanV69ejioN88yp/vz5s5oHJrpv377SvXt3y3lhBSZMmCDTp09X/nbgwIFSuXJly/e8fcBvwEyUKJE8evQoxDowh6NGjdJaG4p78eKFRI8eXZ1su+Tp06dStGhRuXHjhvKZ/H3dunVa3wBITLKRtcJEY4FKlChh1/RCjOM3YLZs2VIWLFjgSQpwAghDChcubLnwO3fuCKGGcbJHjx4t7du3t3xP9wGS+5cvX1anK3Xq1BIuXDitV//55x85f/58iGfr1aunyJcvxG/AhP6TmVm1apVEixZNAESXpOTKlUuFDijdMIXEkCQZnJScOXPKiRMnPFNgEzRr1kxmzJihNa1Xr17Jzp07FWkrWbKkIoa/E78BU2t1v3gIs2qwTR7hBFFh6dy5c2iGDfW7ZJkgS5A6gGSTHjlyRDJlymQ59v3794VNSoIEiREjhhw/flwSJ078y3eDAsykSZMKizcEpc2ZM0dq1aplqTQeWLFihQqJkiRJovK/CRIk0HpP56E9e/bI3LlzVVzaoUMHLSAZt2HDhrJ06VLPJv3rr7+kbt26yhX9SoICTDI5lSpVUpkZTBJJdIhGhAgRLPVN7Dlo0CBFUjjhhEL4udixY1u+68sHWMOBAwdCfAK3sX//fufBxKc1bdpU7t69q3zZ7NmzbVXYrVu35NChQyrRULx4ce2UG+z37du3HgVBvKiu4NucFMIymLxRJWJesPsBAwY4CyYpMYJvHLrh03Lnzv3bXRZWiowcObJK4BuCOUSJbdu21ZoC4cq9e/dUSGTnaSaurV+/vopxETJRixcv/m1IFCZmFp/ETjecOZPDBzx//lwpwUlp0KCBrF692nMCmM+ZM2dUCGIlbFJiRmJQmHTr1q1l7Nix2qGL1fj8vxGjcjKtJEzApPxEJuXNmzee+QAm5g3maSX4QfwiJwCGR1HaLiEk6tatmyqRQXwmTpyovqEjhAt79+71kBSI17x58xSDdULCBEzMWJ48eeTixYtCkZlFE9QPHTrUcs0ACYuD0EDvOQEwVTaH00L+GOtiFtjwyJEjHZlamIDJynDkU6ZMUSaJlFj16tW1zJHBVM0khbQYp9zpumL27Nnl9OnTikEjmMJx48ZJ8+bNtcCkSjRt2jT1LCaaJENoJMzA9HaSOP1WrVr9x9/SyEUg7aRQ1WFjYi0gQpC6f//9VytvS9hB0dzsE6mT6rTB/GrNfg8mpjlHjhyeRWNqU6VKJdeuXdPC8cqVK9K4cWP1PDsfE21nUoBNRVaHVBtA6FoLepIA3iy0t5C88FZsA9OoWuAPdUjNn0yY2mGjRo1UGSpFihQqAZ8uXTrLIQiFKK1R+eDkkBRInz69Yqu6Srf8iJcP0LZCdsgsEKrt27d7OaJN1+BJBBhVC0Clv7VTp05eT+pnLwIGJulPQhnMVrVq1TzxreHXaM9kUzgpy5YtU0kUs5mdP39+qJiwLSeTqwIkgc1Vi82bN6sOOieFXln8kjkkwmpQMtM1tZhnfGPKlCklW7Zsti4H8EhQ4DoIj4h5QyO2gImCjEo8k8GcDRkyRCWtnRQ2F6m9Y8eOKTYN26Ssht/UERLdnB6jKgPj1C2W64xv9zO2gEn/KrvdEPzmrFmztGNBcqo4ftgpmSI7+36IcQmJMK358+dXvlenuEwygesP5g56NgMs1O4TaheotoCJI69QoYKnakFrIrU8naoFLRgkBfAdnHACcQiKrhm0SxE/jgMPgGSZwYSxLly40Kd9PKFZjy1gMoHbt297qhYwNV22mCZNGrl+/bpnDZi0/v37O97IRbGb+ib9soaQrDh37pxW3hYiOHXqVFXLhLRRZvP1/RbbwPR2RyVMmFAeP34c4nXIwI83vrwdPzTvQeqIB43s05+kEceMGaO6+MxslTsvxMy+EsfBJLsDqzPX7XT7dwhXuOqHT0QgKBSbda2CjlIhUQ8fPlR1UsplukLVhdSlWchHUyv1lWiBicmg+MufUHQdAqE7YQgKi6QMBcGghETeVkfIg/bu3TvE7h88eLDtMa7OXH585sc+YHRG7M2J9ZVYgkmVo3z58sofIiSXOTkwVqeFOBbTZRZaMylLOS2Uwtq0aaM2mtHMRYhEkd5XYgkmndvU+AwzSCWe8IF/c1q4Fk8lHnOLYF451RTDdQQTysYk3QcDh4zZKcwNFwIBojOfPlpfiiWYBN27d+8OMQdqk4cPH/blvLTGpjGZSgXWA2GjsfsxcVYCkKQgKUMhbIi1a9eqfwtUsQSTXpiZM2d6+mSIBenK1s2iQB6o2XF1oEqVKqpkZKfQfYC/RTiVtF3qyPLly1V2x1wn5YoErSCBKpZgvnz5UnXT3bx5U9l+Yi9ynjo/2ULIkSVLFvUjEsRtEBy68vyhSwDyBBM2N3PRymJOSwYaqJZgsiAWiPmCzVIT1KXoxIrEWmaFkfqDGTstbMhSpUp5mDDZKnp/DKJnNT84BPEwBAxfyyWhZMmSWb3m0//XAtPbGRA20Odj/hl48q4/Jgm8HT+072H+6TLHX2bOnFmo9Oia6bJlyyrWjL9mI5B+5McznOx+8CmYkAtSe+YrbdyI5mdgdITGaUwyJxllU6TWaYHUGdt4BiJkNJnpvkcTF3c+zBYHEJcsWSJ0CzglPgWTRZFwJ1imZ5YWRIJmnfuTKAzzBXFCCDswY1zbw7c5KXQwYGHM/hUwCYlI/zklPgfT24VxlY0uAQiYISQqOK06oYe339V9j0oPFR+j2kPnAtUeJ3+g0W/BPHnypLpoaw4dCIsoTenWO2HRELdYsWKpvl0705Cwc6wM5T82F3dAqH86KX4LJqQJs0wHG8yRHd+iRQvt3CYnmIQH5Aa/SOqPArhOjdVJQELzbb8Fk0UBBH6Idkl+f4dre7oCYTL/rh4mmuoK9x6DVfwazNAoHUJibuTCxPLbPb+7Ehea7/nDu0ELJlV9EgBGxyAnk9BB96dbuIlNbZR0JERM9xa2k6AGLZg0mOEzyd1CVqiZcqFHhwSR1KDCAYFiM5CG5ERz2dWfJWjBROkAAfvF5P4J05w0aZJqEzWqMYzFRdofb3z5G7BBDaa3yibk4MeYzEkBzLTZB3s7ti/fc8H8iXZhz/TGGjEuYRHd5vxsmj+LC+Yv0CGv3LFjR9VqSR2W3iKdNKSTYLtgOql9m7/tgmmzQp0czgXTSe3b/G0XTJsV6uRwLphOat/mb7tg2qxQJ4dzwXRS+zZ/2wXTZoU6OZwLppPat/nbLpg2K9TJ4VwwndS+zd92wbRZoU4O9z8cRXRxd5lkzQAAAABJRU5ErkJggg==;imageBorder=#000000;" vertex="1" parent="1">
          <mxGeometry x="203.6" y="450" width="73.72" height="50" as="geometry" />
        </mxCell>
        <mxCell id="g8EfFPZP4n4fyyGRmkDg-3" value="execute()" style="edgeStyle=orthogonalEdgeStyle;rounded=0;orthogonalLoop=1;jettySize=auto;html=1;strokeColor=#006600;" edge="1" parent="1" source="g8EfFPZP4n4fyyGRmkDg-2">
          <mxGeometry relative="1" as="geometry">
            <mxPoint x="550" y="430" as="targetPoint" />
          </mxGeometry>
        </mxCell>
        <mxCell id="g8EfFPZP4n4fyyGRmkDg-2" value="ParticleSet" style="text;html=1;strokeColor=#6c8ebf;fillColor=#dae8fc;align=center;verticalAlign=middle;whiteSpace=wrap;rounded=0;" vertex="1" parent="1">
          <mxGeometry x="205.45999999999998" y="420" width="70" height="20" as="geometry" />
        </mxCell>
        <mxCell id="g8EfFPZP4n4fyyGRmkDg-4" value="" style="endArrow=none;html=1;" edge="1" parent="1">
          <mxGeometry width="50" height="50" relative="1" as="geometry">
            <mxPoint x="470" y="455" as="sourcePoint" />
            <mxPoint x="470" y="405" as="targetPoint" />
          </mxGeometry>
        </mxCell>
        <mxCell id="g8EfFPZP4n4fyyGRmkDg-5" value="" style="endArrow=none;html=1;" edge="1" parent="1">
          <mxGeometry width="50" height="50" relative="1" as="geometry">
            <mxPoint x="550" y="455" as="sourcePoint" />
            <mxPoint x="550" y="405" as="targetPoint" />
          </mxGeometry>
        </mxCell>
        <mxCell id="g8EfFPZP4n4fyyGRmkDg-6" value="" style="endArrow=none;html=1;" edge="1" parent="1">
          <mxGeometry width="50" height="50" relative="1" as="geometry">
            <mxPoint x="380" y="455" as="sourcePoint" />
            <mxPoint x="380" y="405" as="targetPoint" />
          </mxGeometry>
        </mxCell>
        <mxCell id="g8EfFPZP4n4fyyGRmkDg-7" value="" style="endArrow=none;html=1;" edge="1" parent="1">
          <mxGeometry width="50" height="50" relative="1" as="geometry">
            <mxPoint x="300" y="455" as="sourcePoint" />
            <mxPoint x="300" y="405" as="targetPoint" />
          </mxGeometry>
        </mxCell>
        <mxCell id="g8EfFPZP4n4fyyGRmkDg-8" value="" style="shape=curlyBracket;whiteSpace=wrap;html=1;rounded=1;flipH=1;direction=south;" vertex="1" parent="1">
          <mxGeometry x="300" y="380" width="250" height="20" as="geometry" />
        </mxCell>
        <mxCell id="g8EfFPZP4n4fyyGRmkDg-9" value="runtime" style="text;html=1;align=center;verticalAlign=middle;whiteSpace=wrap;rounded=0;strokeColor=#000000;" vertex="1" parent="1">
          <mxGeometry x="397.5" y="360" width="55" height="20" as="geometry" />
        </mxCell>
        <mxCell id="g8EfFPZP4n4fyyGRmkDg-10" value="" style="shape=curlyBracket;whiteSpace=wrap;html=1;rounded=1;flipH=1;direction=north;" vertex="1" parent="1">
          <mxGeometry x="470" y="465" width="80" height="20" as="geometry" />
        </mxCell>
        <mxCell id="g8EfFPZP4n4fyyGRmkDg-11" value="Kernel" style="text;html=1;strokeColor=#6c8ebf;fillColor=#dae8fc;align=center;verticalAlign=middle;whiteSpace=wrap;rounded=0;" vertex="1" parent="1">
          <mxGeometry x="475" y="485" width="70" height="20" as="geometry" />
        </mxCell>
        <mxCell id="g8EfFPZP4n4fyyGRmkDg-12" value="execute()" style="text;html=1;strokeColor=#82b366;fillColor=#d5e8d4;align=center;verticalAlign=middle;whiteSpace=wrap;rounded=0;" vertex="1" parent="1">
          <mxGeometry x="475" y="505" width="70" height="20" as="geometry" />
        </mxCell>
      </root>
    </mxGraphModel>
  </diagram>
</mxfile>
